<?xml version="1.0" encoding="utf-8" standalone="no"?>
<!DOCTYPE svg PUBLIC "-//W3C//DTD SVG 1.1//EN"
  "http://www.w3.org/Graphics/SVG/1.1/DTD/svg11.dtd">
<!-- Created with matplotlib (https://matplotlib.org/) -->
<svg height="345.6pt" version="1.1" viewBox="0 0 460.8 345.6" width="460.8pt" xmlns="http://www.w3.org/2000/svg" xmlns:xlink="http://www.w3.org/1999/xlink">
 <defs>
  <style type="text/css">
*{stroke-linecap:butt;stroke-linejoin:round;}
  </style>
 </defs>
 <g id="figure_1">
  <g id="patch_1">
   <path d="M 0 345.6 
L 460.8 345.6 
L 460.8 0 
L 0 0 
z
" style="fill:#ffffff;"/>
  </g>
  <g id="axes_1">
   <g id="patch_2">
    <path d="M 57.6 307.584 
L 414.72 307.584 
L 414.72 41.472 
L 57.6 41.472 
z
" style="fill:#ffffff;"/>
   </g>
   <g id="matplotlib.axis_1">
    <g id="xtick_1">
     <g id="line2d_1">
      <defs>
       <path d="M 0 0 
L 0 3.5 
" id="m37593233f4" style="stroke:#000000;stroke-width:0.8;"/>
      </defs>
      <g>
       <use style="stroke:#000000;stroke-width:0.8;" x="57.6" xlink:href="#m37593233f4" y="307.584"/>
      </g>
     </g>
     <g id="text_1">
      <!-- 0 -->
      <defs>
       <path d="M 31.78125 66.40625 
Q 24.171875 66.40625 20.328125 58.90625 
Q 16.5 51.421875 16.5 36.375 
Q 16.5 21.390625 20.328125 13.890625 
Q 24.171875 6.390625 31.78125 6.390625 
Q 39.453125 6.390625 43.28125 13.890625 
Q 47.125 21.390625 47.125 36.375 
Q 47.125 51.421875 43.28125 58.90625 
Q 39.453125 66.40625 31.78125 66.40625 
z
M 31.78125 74.21875 
Q 44.046875 74.21875 50.515625 64.515625 
Q 56.984375 54.828125 56.984375 36.375 
Q 56.984375 17.96875 50.515625 8.265625 
Q 44.046875 -1.421875 31.78125 -1.421875 
Q 19.53125 -1.421875 13.0625 8.265625 
Q 6.59375 17.96875 6.59375 36.375 
Q 6.59375 54.828125 13.0625 64.515625 
Q 19.53125 74.21875 31.78125 74.21875 
z
" id="DejaVuSans-48"/>
      </defs>
      <g transform="translate(54.41875 322.182437)scale(0.1 -0.1)">
       <use xlink:href="#DejaVuSans-48"/>
      </g>
     </g>
    </g>
    <g id="xtick_2">
     <g id="line2d_2">
      <g>
       <use style="stroke:#000000;stroke-width:0.8;" x="112.122137" xlink:href="#m37593233f4" y="307.584"/>
      </g>
     </g>
     <g id="text_2">
      <!-- 20 -->
      <defs>
       <path d="M 19.1875 8.296875 
L 53.609375 8.296875 
L 53.609375 0 
L 7.328125 0 
L 7.328125 8.296875 
Q 12.9375 14.109375 22.625 23.890625 
Q 32.328125 33.6875 34.8125 36.53125 
Q 39.546875 41.84375 41.421875 45.53125 
Q 43.3125 49.21875 43.3125 52.78125 
Q 43.3125 58.59375 39.234375 62.25 
Q 35.15625 65.921875 28.609375 65.921875 
Q 23.96875 65.921875 18.8125 64.3125 
Q 13.671875 62.703125 7.8125 59.421875 
L 7.8125 69.390625 
Q 13.765625 71.78125 18.9375 73 
Q 24.125 74.21875 28.421875 74.21875 
Q 39.75 74.21875 46.484375 68.546875 
Q 53.21875 62.890625 53.21875 53.421875 
Q 53.21875 48.921875 51.53125 44.890625 
Q 49.859375 40.875 45.40625 35.40625 
Q 44.1875 33.984375 37.640625 27.21875 
Q 31.109375 20.453125 19.1875 8.296875 
z
" id="DejaVuSans-50"/>
      </defs>
      <g transform="translate(105.759637 322.182437)scale(0.1 -0.1)">
       <use xlink:href="#DejaVuSans-50"/>
       <use x="63.623047" xlink:href="#DejaVuSans-48"/>
      </g>
     </g>
    </g>
    <g id="xtick_3">
     <g id="line2d_3">
      <g>
       <use style="stroke:#000000;stroke-width:0.8;" x="166.644275" xlink:href="#m37593233f4" y="307.584"/>
      </g>
     </g>
     <g id="text_3">
      <!-- 40 -->
      <defs>
       <path d="M 37.796875 64.3125 
L 12.890625 25.390625 
L 37.796875 25.390625 
z
M 35.203125 72.90625 
L 47.609375 72.90625 
L 47.609375 25.390625 
L 58.015625 25.390625 
L 58.015625 17.1875 
L 47.609375 17.1875 
L 47.609375 0 
L 37.796875 0 
L 37.796875 17.1875 
L 4.890625 17.1875 
L 4.890625 26.703125 
z
" id="DejaVuSans-52"/>
      </defs>
      <g transform="translate(160.281775 322.182437)scale(0.1 -0.1)">
       <use xlink:href="#DejaVuSans-52"/>
       <use x="63.623047" xlink:href="#DejaVuSans-48"/>
      </g>
     </g>
    </g>
    <g id="xtick_4">
     <g id="line2d_4">
      <g>
       <use style="stroke:#000000;stroke-width:0.8;" x="221.166412" xlink:href="#m37593233f4" y="307.584"/>
      </g>
     </g>
     <g id="text_4">
      <!-- 60 -->
      <defs>
       <path d="M 33.015625 40.375 
Q 26.375 40.375 22.484375 35.828125 
Q 18.609375 31.296875 18.609375 23.390625 
Q 18.609375 15.53125 22.484375 10.953125 
Q 26.375 6.390625 33.015625 6.390625 
Q 39.65625 6.390625 43.53125 10.953125 
Q 47.40625 15.53125 47.40625 23.390625 
Q 47.40625 31.296875 43.53125 35.828125 
Q 39.65625 40.375 33.015625 40.375 
z
M 52.59375 71.296875 
L 52.59375 62.3125 
Q 48.875 64.0625 45.09375 64.984375 
Q 41.3125 65.921875 37.59375 65.921875 
Q 27.828125 65.921875 22.671875 59.328125 
Q 17.53125 52.734375 16.796875 39.40625 
Q 19.671875 43.65625 24.015625 45.921875 
Q 28.375 48.1875 33.59375 48.1875 
Q 44.578125 48.1875 50.953125 41.515625 
Q 57.328125 34.859375 57.328125 23.390625 
Q 57.328125 12.15625 50.6875 5.359375 
Q 44.046875 -1.421875 33.015625 -1.421875 
Q 20.359375 -1.421875 13.671875 8.265625 
Q 6.984375 17.96875 6.984375 36.375 
Q 6.984375 53.65625 15.1875 63.9375 
Q 23.390625 74.21875 37.203125 74.21875 
Q 40.921875 74.21875 44.703125 73.484375 
Q 48.484375 72.75 52.59375 71.296875 
z
" id="DejaVuSans-54"/>
      </defs>
      <g transform="translate(214.803912 322.182437)scale(0.1 -0.1)">
       <use xlink:href="#DejaVuSans-54"/>
       <use x="63.623047" xlink:href="#DejaVuSans-48"/>
      </g>
     </g>
    </g>
    <g id="xtick_5">
     <g id="line2d_5">
      <g>
       <use style="stroke:#000000;stroke-width:0.8;" x="275.68855" xlink:href="#m37593233f4" y="307.584"/>
      </g>
     </g>
     <g id="text_5">
      <!-- 80 -->
      <defs>
       <path d="M 31.78125 34.625 
Q 24.75 34.625 20.71875 30.859375 
Q 16.703125 27.09375 16.703125 20.515625 
Q 16.703125 13.921875 20.71875 10.15625 
Q 24.75 6.390625 31.78125 6.390625 
Q 38.8125 6.390625 42.859375 10.171875 
Q 46.921875 13.96875 46.921875 20.515625 
Q 46.921875 27.09375 42.890625 30.859375 
Q 38.875 34.625 31.78125 34.625 
z
M 21.921875 38.8125 
Q 15.578125 40.375 12.03125 44.71875 
Q 8.5 49.078125 8.5 55.328125 
Q 8.5 64.0625 14.71875 69.140625 
Q 20.953125 74.21875 31.78125 74.21875 
Q 42.671875 74.21875 48.875 69.140625 
Q 55.078125 64.0625 55.078125 55.328125 
Q 55.078125 49.078125 51.53125 44.71875 
Q 48 40.375 41.703125 38.8125 
Q 48.828125 37.15625 52.796875 32.3125 
Q 56.78125 27.484375 56.78125 20.515625 
Q 56.78125 9.90625 50.3125 4.234375 
Q 43.84375 -1.421875 31.78125 -1.421875 
Q 19.734375 -1.421875 13.25 4.234375 
Q 6.78125 9.90625 6.78125 20.515625 
Q 6.78125 27.484375 10.78125 32.3125 
Q 14.796875 37.15625 21.921875 38.8125 
z
M 18.3125 54.390625 
Q 18.3125 48.734375 21.84375 45.5625 
Q 25.390625 42.390625 31.78125 42.390625 
Q 38.140625 42.390625 41.71875 45.5625 
Q 45.3125 48.734375 45.3125 54.390625 
Q 45.3125 60.0625 41.71875 63.234375 
Q 38.140625 66.40625 31.78125 66.40625 
Q 25.390625 66.40625 21.84375 63.234375 
Q 18.3125 60.0625 18.3125 54.390625 
z
" id="DejaVuSans-56"/>
      </defs>
      <g transform="translate(269.32605 322.182437)scale(0.1 -0.1)">
       <use xlink:href="#DejaVuSans-56"/>
       <use x="63.623047" xlink:href="#DejaVuSans-48"/>
      </g>
     </g>
    </g>
    <g id="xtick_6">
     <g id="line2d_6">
      <g>
       <use style="stroke:#000000;stroke-width:0.8;" x="330.210687" xlink:href="#m37593233f4" y="307.584"/>
      </g>
     </g>
     <g id="text_6">
      <!-- 100 -->
      <defs>
       <path d="M 12.40625 8.296875 
L 28.515625 8.296875 
L 28.515625 63.921875 
L 10.984375 60.40625 
L 10.984375 69.390625 
L 28.421875 72.90625 
L 38.28125 72.90625 
L 38.28125 8.296875 
L 54.390625 8.296875 
L 54.390625 0 
L 12.40625 0 
z
" id="DejaVuSans-49"/>
      </defs>
      <g transform="translate(320.666937 322.182437)scale(0.1 -0.1)">
       <use xlink:href="#DejaVuSans-49"/>
       <use x="63.623047" xlink:href="#DejaVuSans-48"/>
       <use x="127.246094" xlink:href="#DejaVuSans-48"/>
      </g>
     </g>
    </g>
    <g id="xtick_7">
     <g id="line2d_7">
      <g>
       <use style="stroke:#000000;stroke-width:0.8;" x="384.732824" xlink:href="#m37593233f4" y="307.584"/>
      </g>
     </g>
     <g id="text_7">
      <!-- 120 -->
      <g transform="translate(375.189074 322.182437)scale(0.1 -0.1)">
       <use xlink:href="#DejaVuSans-49"/>
       <use x="63.623047" xlink:href="#DejaVuSans-50"/>
       <use x="127.246094" xlink:href="#DejaVuSans-48"/>
      </g>
     </g>
    </g>
    <g id="text_8">
     <!-- medicions -->
     <defs>
      <path d="M 52 44.1875 
Q 55.375 50.25 60.0625 53.125 
Q 64.75 56 71.09375 56 
Q 79.640625 56 84.28125 50.015625 
Q 88.921875 44.046875 88.921875 33.015625 
L 88.921875 0 
L 79.890625 0 
L 79.890625 32.71875 
Q 79.890625 40.578125 77.09375 44.375 
Q 74.3125 48.1875 68.609375 48.1875 
Q 61.625 48.1875 57.5625 43.546875 
Q 53.515625 38.921875 53.515625 30.90625 
L 53.515625 0 
L 44.484375 0 
L 44.484375 32.71875 
Q 44.484375 40.625 41.703125 44.40625 
Q 38.921875 48.1875 33.109375 48.1875 
Q 26.21875 48.1875 22.15625 43.53125 
Q 18.109375 38.875 18.109375 30.90625 
L 18.109375 0 
L 9.078125 0 
L 9.078125 54.6875 
L 18.109375 54.6875 
L 18.109375 46.1875 
Q 21.1875 51.21875 25.484375 53.609375 
Q 29.78125 56 35.6875 56 
Q 41.65625 56 45.828125 52.96875 
Q 50 49.953125 52 44.1875 
z
" id="DejaVuSans-109"/>
      <path d="M 56.203125 29.59375 
L 56.203125 25.203125 
L 14.890625 25.203125 
Q 15.484375 15.921875 20.484375 11.0625 
Q 25.484375 6.203125 34.421875 6.203125 
Q 39.59375 6.203125 44.453125 7.46875 
Q 49.3125 8.734375 54.109375 11.28125 
L 54.109375 2.78125 
Q 49.265625 0.734375 44.1875 -0.34375 
Q 39.109375 -1.421875 33.890625 -1.421875 
Q 20.796875 -1.421875 13.15625 6.1875 
Q 5.515625 13.8125 5.515625 26.8125 
Q 5.515625 40.234375 12.765625 48.109375 
Q 20.015625 56 32.328125 56 
Q 43.359375 56 49.78125 48.890625 
Q 56.203125 41.796875 56.203125 29.59375 
z
M 47.21875 32.234375 
Q 47.125 39.59375 43.09375 43.984375 
Q 39.0625 48.390625 32.421875 48.390625 
Q 24.90625 48.390625 20.390625 44.140625 
Q 15.875 39.890625 15.1875 32.171875 
z
" id="DejaVuSans-101"/>
      <path d="M 45.40625 46.390625 
L 45.40625 75.984375 
L 54.390625 75.984375 
L 54.390625 0 
L 45.40625 0 
L 45.40625 8.203125 
Q 42.578125 3.328125 38.25 0.953125 
Q 33.9375 -1.421875 27.875 -1.421875 
Q 17.96875 -1.421875 11.734375 6.484375 
Q 5.515625 14.40625 5.515625 27.296875 
Q 5.515625 40.1875 11.734375 48.09375 
Q 17.96875 56 27.875 56 
Q 33.9375 56 38.25 53.625 
Q 42.578125 51.265625 45.40625 46.390625 
z
M 14.796875 27.296875 
Q 14.796875 17.390625 18.875 11.75 
Q 22.953125 6.109375 30.078125 6.109375 
Q 37.203125 6.109375 41.296875 11.75 
Q 45.40625 17.390625 45.40625 27.296875 
Q 45.40625 37.203125 41.296875 42.84375 
Q 37.203125 48.484375 30.078125 48.484375 
Q 22.953125 48.484375 18.875 42.84375 
Q 14.796875 37.203125 14.796875 27.296875 
z
" id="DejaVuSans-100"/>
      <path d="M 9.421875 54.6875 
L 18.40625 54.6875 
L 18.40625 0 
L 9.421875 0 
z
M 9.421875 75.984375 
L 18.40625 75.984375 
L 18.40625 64.59375 
L 9.421875 64.59375 
z
" id="DejaVuSans-105"/>
      <path d="M 48.78125 52.59375 
L 48.78125 44.1875 
Q 44.96875 46.296875 41.140625 47.34375 
Q 37.3125 48.390625 33.40625 48.390625 
Q 24.65625 48.390625 19.8125 42.84375 
Q 14.984375 37.3125 14.984375 27.296875 
Q 14.984375 17.28125 19.8125 11.734375 
Q 24.65625 6.203125 33.40625 6.203125 
Q 37.3125 6.203125 41.140625 7.25 
Q 44.96875 8.296875 48.78125 10.40625 
L 48.78125 2.09375 
Q 45.015625 0.34375 40.984375 -0.53125 
Q 36.96875 -1.421875 32.421875 -1.421875 
Q 20.0625 -1.421875 12.78125 6.34375 
Q 5.515625 14.109375 5.515625 27.296875 
Q 5.515625 40.671875 12.859375 48.328125 
Q 20.21875 56 33.015625 56 
Q 37.15625 56 41.109375 55.140625 
Q 45.0625 54.296875 48.78125 52.59375 
z
" id="DejaVuSans-99"/>
      <path d="M 30.609375 48.390625 
Q 23.390625 48.390625 19.1875 42.75 
Q 14.984375 37.109375 14.984375 27.296875 
Q 14.984375 17.484375 19.15625 11.84375 
Q 23.34375 6.203125 30.609375 6.203125 
Q 37.796875 6.203125 41.984375 11.859375 
Q 46.1875 17.53125 46.1875 27.296875 
Q 46.1875 37.015625 41.984375 42.703125 
Q 37.796875 48.390625 30.609375 48.390625 
z
M 30.609375 56 
Q 42.328125 56 49.015625 48.375 
Q 55.71875 40.765625 55.71875 27.296875 
Q 55.71875 13.875 49.015625 6.21875 
Q 42.328125 -1.421875 30.609375 -1.421875 
Q 18.84375 -1.421875 12.171875 6.21875 
Q 5.515625 13.875 5.515625 27.296875 
Q 5.515625 40.765625 12.171875 48.375 
Q 18.84375 56 30.609375 56 
z
" id="DejaVuSans-111"/>
      <path d="M 54.890625 33.015625 
L 54.890625 0 
L 45.90625 0 
L 45.90625 32.71875 
Q 45.90625 40.484375 42.875 44.328125 
Q 39.84375 48.1875 33.796875 48.1875 
Q 26.515625 48.1875 22.3125 43.546875 
Q 18.109375 38.921875 18.109375 30.90625 
L 18.109375 0 
L 9.078125 0 
L 9.078125 54.6875 
L 18.109375 54.6875 
L 18.109375 46.1875 
Q 21.34375 51.125 25.703125 53.5625 
Q 30.078125 56 35.796875 56 
Q 45.21875 56 50.046875 50.171875 
Q 54.890625 44.34375 54.890625 33.015625 
z
" id="DejaVuSans-110"/>
      <path d="M 44.28125 53.078125 
L 44.28125 44.578125 
Q 40.484375 46.53125 36.375 47.5 
Q 32.28125 48.484375 27.875 48.484375 
Q 21.1875 48.484375 17.84375 46.4375 
Q 14.5 44.390625 14.5 40.28125 
Q 14.5 37.15625 16.890625 35.375 
Q 19.28125 33.59375 26.515625 31.984375 
L 29.59375 31.296875 
Q 39.15625 29.25 43.1875 25.515625 
Q 47.21875 21.78125 47.21875 15.09375 
Q 47.21875 7.46875 41.1875 3.015625 
Q 35.15625 -1.421875 24.609375 -1.421875 
Q 20.21875 -1.421875 15.453125 -0.5625 
Q 10.6875 0.296875 5.421875 2 
L 5.421875 11.28125 
Q 10.40625 8.6875 15.234375 7.390625 
Q 20.0625 6.109375 24.8125 6.109375 
Q 31.15625 6.109375 34.5625 8.28125 
Q 37.984375 10.453125 37.984375 14.40625 
Q 37.984375 18.0625 35.515625 20.015625 
Q 33.0625 21.96875 24.703125 23.78125 
L 21.578125 24.515625 
Q 13.234375 26.265625 9.515625 29.90625 
Q 5.8125 33.546875 5.8125 39.890625 
Q 5.8125 47.609375 11.28125 51.796875 
Q 16.75 56 26.8125 56 
Q 31.78125 56 36.171875 55.265625 
Q 40.578125 54.546875 44.28125 53.078125 
z
" id="DejaVuSans-115"/>
     </defs>
     <g transform="translate(210.67875 335.860562)scale(0.1 -0.1)">
      <use xlink:href="#DejaVuSans-109"/>
      <use x="97.412109" xlink:href="#DejaVuSans-101"/>
      <use x="158.935547" xlink:href="#DejaVuSans-100"/>
      <use x="222.412109" xlink:href="#DejaVuSans-105"/>
      <use x="250.195312" xlink:href="#DejaVuSans-99"/>
      <use x="305.175781" xlink:href="#DejaVuSans-105"/>
      <use x="332.958984" xlink:href="#DejaVuSans-111"/>
      <use x="394.140625" xlink:href="#DejaVuSans-110"/>
      <use x="457.519531" xlink:href="#DejaVuSans-115"/>
     </g>
    </g>
   </g>
   <g id="matplotlib.axis_2">
    <g id="ytick_1">
     <g id="line2d_8">
      <defs>
       <path d="M 0 0 
L -3.5 0 
" id="mb2d3414236" style="stroke:#000000;stroke-width:0.8;"/>
      </defs>
      <g>
       <use style="stroke:#000000;stroke-width:0.8;" x="57.6" xlink:href="#mb2d3414236" y="295.488"/>
      </g>
     </g>
     <g id="text_9">
      <!-- 0 -->
      <g transform="translate(44.2375 299.287219)scale(0.1 -0.1)">
       <use xlink:href="#DejaVuSans-48"/>
      </g>
     </g>
    </g>
    <g id="ytick_2">
     <g id="line2d_9">
      <g>
       <use style="stroke:#000000;stroke-width:0.8;" x="57.6" xlink:href="#mb2d3414236" y="253.866315"/>
      </g>
     </g>
     <g id="text_10">
      <!-- 20 -->
      <g transform="translate(37.875 257.665534)scale(0.1 -0.1)">
       <use xlink:href="#DejaVuSans-50"/>
       <use x="63.623047" xlink:href="#DejaVuSans-48"/>
      </g>
     </g>
    </g>
    <g id="ytick_3">
     <g id="line2d_10">
      <g>
       <use style="stroke:#000000;stroke-width:0.8;" x="57.6" xlink:href="#mb2d3414236" y="212.24463"/>
      </g>
     </g>
     <g id="text_11">
      <!-- 40 -->
      <g transform="translate(37.875 216.043849)scale(0.1 -0.1)">
       <use xlink:href="#DejaVuSans-52"/>
       <use x="63.623047" xlink:href="#DejaVuSans-48"/>
      </g>
     </g>
    </g>
    <g id="ytick_4">
     <g id="line2d_11">
      <g>
       <use style="stroke:#000000;stroke-width:0.8;" x="57.6" xlink:href="#mb2d3414236" y="170.622945"/>
      </g>
     </g>
     <g id="text_12">
      <!-- 60 -->
      <g transform="translate(37.875 174.422164)scale(0.1 -0.1)">
       <use xlink:href="#DejaVuSans-54"/>
       <use x="63.623047" xlink:href="#DejaVuSans-48"/>
      </g>
     </g>
    </g>
    <g id="ytick_5">
     <g id="line2d_12">
      <g>
       <use style="stroke:#000000;stroke-width:0.8;" x="57.6" xlink:href="#mb2d3414236" y="129.00126"/>
      </g>
     </g>
     <g id="text_13">
      <!-- 80 -->
      <g transform="translate(37.875 132.800478)scale(0.1 -0.1)">
       <use xlink:href="#DejaVuSans-56"/>
       <use x="63.623047" xlink:href="#DejaVuSans-48"/>
      </g>
     </g>
    </g>
    <g id="ytick_6">
     <g id="line2d_13">
      <g>
       <use style="stroke:#000000;stroke-width:0.8;" x="57.6" xlink:href="#mb2d3414236" y="87.379575"/>
      </g>
     </g>
     <g id="text_14">
      <!-- 100 -->
      <g transform="translate(31.5125 91.178793)scale(0.1 -0.1)">
       <use xlink:href="#DejaVuSans-49"/>
       <use x="63.623047" xlink:href="#DejaVuSans-48"/>
       <use x="127.246094" xlink:href="#DejaVuSans-48"/>
      </g>
     </g>
    </g>
    <g id="ytick_7">
     <g id="line2d_14">
      <g>
       <use style="stroke:#000000;stroke-width:0.8;" x="57.6" xlink:href="#mb2d3414236" y="45.75789"/>
      </g>
     </g>
     <g id="text_15">
      <!-- 120 -->
      <g transform="translate(31.5125 49.557108)scale(0.1 -0.1)">
       <use xlink:href="#DejaVuSans-49"/>
       <use x="63.623047" xlink:href="#DejaVuSans-50"/>
       <use x="127.246094" xlink:href="#DejaVuSans-48"/>
      </g>
     </g>
    </g>
    <g id="text_16">
     <!-- metros -->
     <defs>
      <path d="M 18.3125 70.21875 
L 18.3125 54.6875 
L 36.8125 54.6875 
L 36.8125 47.703125 
L 18.3125 47.703125 
L 18.3125 18.015625 
Q 18.3125 11.328125 20.140625 9.421875 
Q 21.96875 7.515625 27.59375 7.515625 
L 36.8125 7.515625 
L 36.8125 0 
L 27.59375 0 
Q 17.1875 0 13.234375 3.875 
Q 9.28125 7.765625 9.28125 18.015625 
L 9.28125 47.703125 
L 2.6875 47.703125 
L 2.6875 54.6875 
L 9.28125 54.6875 
L 9.28125 70.21875 
z
" id="DejaVuSans-116"/>
      <path d="M 41.109375 46.296875 
Q 39.59375 47.171875 37.8125 47.578125 
Q 36.03125 48 33.890625 48 
Q 26.265625 48 22.1875 43.046875 
Q 18.109375 38.09375 18.109375 28.8125 
L 18.109375 0 
L 9.078125 0 
L 9.078125 54.6875 
L 18.109375 54.6875 
L 18.109375 46.1875 
Q 20.953125 51.171875 25.484375 53.578125 
Q 30.03125 56 36.53125 56 
Q 37.453125 56 38.578125 55.875 
Q 39.703125 55.765625 41.0625 55.515625 
z
" id="DejaVuSans-114"/>
     </defs>
     <g transform="translate(25.432812 192.153)rotate(-90)scale(0.1 -0.1)">
      <use xlink:href="#DejaVuSans-109"/>
      <use x="97.412109" xlink:href="#DejaVuSans-101"/>
      <use x="158.935547" xlink:href="#DejaVuSans-116"/>
      <use x="198.144531" xlink:href="#DejaVuSans-114"/>
      <use x="239.226562" xlink:href="#DejaVuSans-111"/>
      <use x="300.408203" xlink:href="#DejaVuSans-115"/>
     </g>
    </g>
   </g>
   <g id="line2d_15">
    <path clip-path="url(#p1a0b703cff)" d="M 57.6 78.430912 
L 60.326107 82.801189 
L 63.052214 85.922816 
L 65.778321 83.841731 
L 68.504427 79.055238 
L 71.230534 84.882273 
L 73.956641 75.933611 
L 76.682748 95.495803 
L 79.408855 100.074189 
L 82.134962 92.166068 
L 84.861069 78.430912 
L 87.587176 94.039044 
L 90.313282 86.755249 
L 93.039389 86.130924 
L 95.765496 91.541743 
L 98.491603 97.368779 
L 101.21771 88.628225 
L 103.943817 80.928213 
L 106.669924 83.009298 
L 109.396031 90.084984 
L 112.122137 83.217406 
L 123.026565 91.749852 
L 125.752672 92.790394 
L 139.383206 85.506599 
L 142.109313 82.384972 
L 144.83542 81.968756 
L 147.561527 74.476852 
L 150.287634 83.009298 
L 153.01374 80.303888 
L 155.739847 81.552539 
L 158.465954 83.425515 
L 161.192061 84.674165 
L 163.918168 74.684961 
L 166.644275 67.193057 
L 172.096489 74.268744 
L 177.548702 66.77684 
L 180.274809 65.111973 
L 183.000916 65.320082 
L 188.45313 68.233599 
L 191.179237 73.43631 
L 204.809771 78.430912 
L 210.261985 71.771443 
L 212.988092 74.893069 
L 215.714198 67.609274 
L 221.166412 71.979551 
L 223.892519 70.730901 
L 226.618626 72.811985 
L 229.344733 68.441708 
L 232.07084 80.511997 
L 237.523053 61.157913 
L 242.975267 67.401166 
L 245.701374 67.401166 
L 248.427481 70.106575 
L 253.879695 70.730901 
L 262.058015 75.309286 
L 264.784122 66.360624 
L 267.510229 73.228202 
L 270.236336 76.557936 
L 272.962443 76.557936 
L 275.68855 81.968756 
L 283.86687 86.963358 
L 286.592977 81.968756 
L 292.045191 82.384972 
L 294.771298 83.841731 
L 297.497405 82.801189 
L 300.223511 87.587683 
L 302.949618 85.090382 
L 305.675725 86.963358 
L 308.401832 86.963358 
L 311.127939 80.511997 
L 313.854046 80.928213 
L 316.580153 82.593081 
L 319.30626 84.04984 
L 322.032366 81.34443 
L 324.758473 91.125526 
L 327.48458 89.044442 
L 330.210687 87.379575 
L 332.936794 89.044442 
L 335.662901 86.963358 
L 338.389008 68.857925 
L 341.115115 79.887671 
L 343.841221 76.557936 
L 349.293435 80.720105 
L 352.019542 84.466057 
L 354.745649 92.790394 
L 357.471756 87.587683 
L 360.197863 86.755249 
L 362.923969 94.039044 
L 365.650076 98.409321 
L 368.376183 98.201213 
L 371.10229 96.328237 
L 373.828397 101.530948 
L 376.554504 89.668767 
L 379.280611 92.374177 
L 384.732824 79.887671 
L 387.458931 81.968756 
L 390.185038 83.217406 
L 392.911145 88.212008 
L 395.637252 100.906622 
L 398.363359 106.109333 
L 401.089466 106.733658 
L 403.815573 93.206611 
L 406.541679 93.622827 
L 411.993893 80.997583 
L 411.993893 80.997583 
" style="fill:none;stroke:#1f77b4;stroke-linecap:square;stroke-width:1.5;"/>
   </g>
   <g id="line2d_16">
    <path clip-path="url(#p1a0b703cff)" d="M 57.6 295.488 
L 60.326107 81.700712 
L 63.052214 82.030894 
L 65.778321 76.325534 
L 68.504427 75.590591 
L 71.230534 68.901372 
L 73.956641 78.099734 
L 76.682748 77.446467 
L 79.408855 75.833431 
L 82.134962 66.648833 
L 84.861069 71.233019 
L 87.587176 72.626811 
L 90.313282 70.917565 
L 93.039389 67.193535 
L 95.765496 76.268145 
L 101.21771 68.938764 
L 103.943817 77.213628 
L 106.669924 71.759016 
L 109.396031 71.099389 
L 112.122137 71.21082 
L 114.848244 68.924388 
L 117.574351 64.018143 
L 120.300458 64.8559 
L 123.026565 68.318712 
L 125.752672 69.482888 
L 128.478779 69.856096 
L 131.204885 67.422748 
L 133.930992 69.604981 
L 136.657099 70.156311 
L 139.383206 69.850704 
L 142.109313 69.269656 
L 144.83542 72.348926 
L 147.561527 70.113921 
L 150.287634 72.750618 
L 153.01374 69.719182 
L 155.739847 75.331427 
L 158.465954 75.261602 
L 161.192061 76.978804 
L 163.918168 80.713053 
L 166.644275 79.586329 
L 169.370382 76.940907 
L 172.096489 79.130625 
L 174.822595 78.504932 
L 177.548702 87.423577 
L 180.274809 92.435778 
L 183.000916 88.71035 
L 185.727023 79.146132 
L 188.45313 89.416804 
L 191.179237 85.376281 
L 193.905344 84.139445 
L 196.63145 87.879648 
L 199.357557 94.151378 
L 202.083664 86.687243 
L 204.809771 80.53092 
L 207.535878 81.795874 
L 210.261985 86.247338 
L 212.988092 86.162728 
L 215.714198 85.010365 
L 218.440305 87.083201 
L 221.166412 87.441703 
L 223.892519 88.105388 
L 226.618626 86.793445 
L 229.344733 88.152925 
L 232.07084 90.990951 
L 234.796947 86.621517 
L 237.523053 84.997424 
L 240.24916 84.632233 
L 242.975267 84.869635 
L 245.701374 81.413472 
L 248.427481 81.334153 
L 251.153588 86.129497 
L 253.879695 85.969558 
L 256.605802 86.514068 
L 259.331908 87.717138 
L 262.058015 89.352879 
L 264.784122 87.201049 
L 267.510229 81.527639 
L 270.236336 81.040929 
L 272.962443 81.115473 
L 275.68855 77.311676 
L 278.414656 74.50119 
L 281.140763 72.285288 
L 283.86687 73.872069 
L 286.592977 71.640597 
L 289.319084 71.194281 
L 292.045191 71.976913 
L 294.771298 72.322074 
L 297.497405 71.911077 
L 300.223511 74.960908 
L 302.949618 75.998944 
L 305.675725 75.539191 
L 308.401832 73.492199 
L 311.127939 70.583029 
L 313.854046 71.969444 
L 316.580153 70.768973 
L 319.30626 67.708447 
L 322.032366 71.344953 
L 324.758473 69.40235 
L 327.48458 68.705149 
L 330.210687 66.109686 
L 332.936794 77.025237 
L 335.662901 73.946164 
L 338.389008 63.601736 
L 341.115115 64.923032 
L 343.841221 65.817101 
L 346.567328 68.352605 
L 349.293435 68.674256 
L 352.019542 68.816562 
L 354.745649 68.601296 
L 357.471756 69.765808 
L 360.197863 69.426671 
L 362.923969 73.601614 
L 365.650076 71.340426 
L 368.376183 71.878885 
L 371.10229 74.1016 
L 373.828397 73.617934 
L 379.280611 79.832951 
L 382.006718 81.015772 
L 384.732824 82.072466 
L 387.458931 80.292166 
L 390.185038 79.454576 
L 392.911145 78.943233 
L 395.637252 79.987105 
L 398.363359 80.604458 
L 401.089466 83.133437 
L 403.815573 82.795566 
L 406.541679 83.167581 
L 409.267786 83.980353 
L 411.993893 81.60797 
L 414.72 80.528213 
L 417.446107 82.435024 
L 420.172214 83.911498 
L 422.898321 81.782856 
L 425.624427 85.693223 
L 428.350534 85.874448 
L 431.076641 85.097339 
L 433.802748 87.641909 
L 436.528855 87.186391 
L 439.254962 77.546216 
L 441.981069 80.224875 
L 444.707176 79.126415 
L 447.433282 80.421157 
L 450.159389 81.452317 
L 452.885496 83.324256 
L 455.611603 88.492958 
L 458.33771 86.07742 
L 461.063817 87.363768 
L 461.8 87.957817 
L 461.8 87.957817 
" style="fill:none;stroke:#ff7f0e;stroke-linecap:square;stroke-width:1.5;"/>
   </g>
   <g id="line2d_17">
    <path clip-path="url(#p1a0b703cff)" d="M 57.6 295.488 
L 60.326107 295.488 
L 63.052214 80.715883 
L 65.778321 79.273886 
L 68.504427 78.0847 
L 71.230534 65.837893 
L 73.956641 78.778599 
L 76.682748 80.594608 
L 79.408855 76.557847 
L 82.134962 77.464132 
L 84.861069 66.569818 
L 87.587176 73.384625 
L 90.313282 71.948233 
L 93.039389 69.967667 
L 95.765496 67.301977 
L 98.491603 76.102402 
L 101.21771 70.584602 
L 103.943817 70.95929 
L 106.669924 75.016678 
L 109.396031 69.187991 
L 112.122137 73.335149 
L 114.848244 70.427081 
L 117.574351 68.807117 
L 120.300458 64.960693 
L 123.026565 66.437595 
L 125.752672 68.067 
L 128.478779 70.567661 
L 131.204885 68.189655 
L 133.930992 68.758951 
L 136.657099 71.489864 
L 139.383206 69.277536 
L 142.109313 70.193545 
L 144.83542 71.681956 
L 147.561527 72.149694 
L 150.287634 69.639998 
L 153.01374 72.698261 
L 155.739847 70.9158 
L 158.465954 74.599752 
L 161.192061 74.820202 
L 163.918168 77.014834 
L 166.644275 79.507169 
L 169.370382 78.851476 
L 172.096489 75.947323 
L 174.822595 81.308571 
L 177.548702 78.735857 
L 180.274809 88.279921 
L 183.000916 90.925877 
L 185.727023 83.393228 
L 188.45313 84.333096 
L 191.179237 89.437412 
L 193.905344 82.634639 
L 196.63145 86.202025 
L 199.357557 90.656288 
L 202.083664 88.630003 
L 204.809771 85.007239 
L 207.535878 83.274158 
L 210.261985 81.342294 
L 212.988092 88.870265 
L 215.714198 85.127638 
L 218.440305 85.458944 
L 221.166412 86.679233 
L 223.892519 85.41453 
L 226.618626 86.186226 
L 229.344733 88.00042 
L 232.07084 89.992844 
L 234.796947 87.118455 
L 237.523053 86.526115 
L 240.24916 84.991805 
L 242.975267 85.128357 
L 245.701374 82.692073 
L 248.427481 85.213129 
L 251.153588 84.749105 
L 253.879695 87.22834 
L 256.605802 86.322097 
L 259.331908 88.487956 
L 262.058015 90.029082 
L 264.784122 92.325657 
L 267.510229 87.466522 
L 270.236336 82.363336 
L 272.962443 82.871366 
L 275.68855 80.706102 
L 278.414656 76.856943 
L 281.140763 74.770661 
L 283.86687 76.171978 
L 286.592977 71.991023 
L 289.319084 71.073876 
L 292.045191 70.501991 
L 294.771298 71.559224 
L 297.497405 70.225371 
L 300.223511 74.208888 
L 302.949618 74.936643 
L 305.675725 73.074306 
L 308.401832 74.915981 
L 311.127939 71.515023 
L 313.854046 71.584886 
L 316.580153 72.616709 
L 319.30626 66.990742 
L 322.032366 72.930293 
L 327.48458 66.483305 
L 330.210687 67.526708 
L 332.936794 70.564574 
L 335.662901 78.090771 
L 338.389008 68.287764 
L 341.115115 65.264161 
L 343.841221 66.465686 
L 346.567328 66.578514 
L 349.293435 67.199073 
L 352.019542 68.148812 
L 354.745649 68.241413 
L 357.471756 67.469121 
L 360.197863 69.167723 
L 362.923969 71.339942 
L 365.650076 75.066891 
L 368.376183 69.037644 
L 371.10229 71.205137 
L 373.828397 75.975583 
L 376.554504 73.258819 
L 379.280611 77.576476 
L 382.006718 79.516445 
L 384.732824 80.213827 
L 387.458931 81.516562 
L 390.185038 79.750363 
L 392.911145 78.484884 
L 395.637252 79.087393 
L 398.363359 80.761104 
L 401.089466 80.709114 
L 403.815573 82.827911 
L 406.541679 81.753313 
L 409.267786 83.509154 
L 411.993893 84.128872 
L 414.72 80.780201 
L 417.446107 82.397603 
L 420.172214 83.176762 
L 422.898321 81.922385 
L 425.624427 81.613058 
L 428.350534 85.796336 
L 431.076641 84.803527 
L 433.802748 86.211156 
L 436.528855 87.872173 
L 439.254962 85.92968 
L 441.981069 78.17728 
L 444.707176 81.5853 
L 447.433282 79.715239 
L 450.159389 80.569496 
L 452.885496 81.774086 
L 455.611603 83.90509 
L 458.33771 87.061047 
L 461.063817 87.346842 
L 461.8 87.066906 
L 461.8 87.066906 
" style="fill:none;stroke:#2ca02c;stroke-dasharray:5.55,2.4;stroke-dashoffset:0;stroke-width:1.5;"/>
   </g>
   <g id="line2d_18">
    <path clip-path="url(#p1a0b703cff)" d="M 57.6 295.488 
L 63.052214 295.488 
L 65.778321 77.662041 
L 68.504427 79.300228 
L 71.230534 70.198874 
L 73.956641 75.900722 
L 76.682748 80.722134 
L 79.408855 74.881227 
L 82.134962 79.396796 
L 84.861069 76.8943 
L 87.587176 69.090895 
L 90.313282 73.714665 
L 93.039389 70.347792 
L 95.765496 69.521706 
L 98.491603 67.876672 
L 101.21771 73.957472 
L 103.943817 72.465519 
L 106.669924 69.593825 
L 109.396031 72.774875 
L 112.122137 70.744353 
L 114.848244 72.521306 
L 117.574351 70.983166 
L 120.300458 69.623174 
L 123.026565 66.597253 
L 125.752672 66.346123 
L 128.478779 68.690439 
L 131.204885 69.935844 
L 133.930992 69.389486 
L 136.657099 70.818826 
L 139.383206 70.629619 
L 142.109313 70.114976 
L 144.83542 71.992495 
L 147.561527 71.816797 
L 150.287634 72.02332 
L 153.01374 69.460751 
L 155.739847 74.708116 
L 158.465954 69.906644 
L 161.192061 74.392712 
L 163.918168 75.045995 
L 166.644275 76.238119 
L 169.370382 79.00443 
L 172.096489 77.802714 
L 174.822595 78.053758 
L 177.548702 81.850456 
L 180.274809 79.617057 
L 183.000916 86.747501 
L 185.727023 86.163349 
L 188.45313 88.010885 
L 191.179237 85.531514 
L 193.905344 86.033184 
L 196.63145 84.862903 
L 199.357557 89.033848 
L 202.083664 86.205929 
L 204.809771 85.673754 
L 207.535878 87.947177 
L 210.261985 83.404545 
L 212.988092 83.756506 
L 215.714198 87.496727 
L 218.440305 84.706954 
L 221.166412 86.056278 
L 223.892519 86.21639 
L 226.618626 82.400197 
L 229.344733 87.262777 
L 232.07084 90.384201 
L 234.796947 86.936248 
L 237.523053 86.141709 
L 240.24916 85.19888 
L 242.975267 85.553242 
L 245.701374 84.177075 
L 248.427481 86.510712 
L 251.153588 88.615959 
L 253.879695 85.513855 
L 256.605802 87.836427 
L 259.331908 88.68434 
L 262.058015 91.189135 
L 264.784122 92.770748 
L 267.510229 92.246771 
L 270.236336 88.716842 
L 272.962443 83.931986 
L 275.68855 82.303621 
L 278.414656 79.920972 
L 281.140763 77.253139 
L 283.86687 78.830842 
L 286.592977 74.222351 
L 289.319084 71.52573 
L 292.045191 70.762735 
L 294.771298 70.603103 
L 297.497405 69.412009 
L 300.223511 73.274147 
L 302.949618 74.882592 
L 305.675725 70.698839 
L 308.401832 72.07723 
L 311.127939 72.565325 
L 313.854046 74.636575 
L 316.580153 72.859005 
L 319.30626 67.610562 
L 322.032366 71.767245 
L 324.758473 73.019257 
L 327.48458 66.634409 
L 330.210687 65.053683 
L 332.936794 72.473557 
L 335.662901 72.24779 
L 338.389008 71.56201 
L 341.115115 69.528516 
L 343.841221 66.377915 
L 346.567328 68.586521 
L 349.293435 64.821276 
L 352.019542 66.749638 
L 354.745649 67.485279 
L 357.471756 68.104673 
L 360.197863 66.615392 
L 362.923969 70.650933 
L 365.650076 73.110515 
L 368.376183 73.071627 
L 371.10229 67.434617 
L 373.828397 72.048423 
L 376.554504 77.41278 
L 379.280611 74.10864 
L 382.006718 77.222096 
L 384.732824 78.60079 
L 387.458931 80.336264 
L 390.185038 80.8221 
L 392.911145 78.984465 
L 395.637252 79.021057 
L 398.363359 80.037984 
L 403.815573 80.32844 
L 406.541679 82.039791 
L 409.267786 82.422859 
L 411.993893 83.382571 
L 414.72 83.329871 
L 417.446107 82.580694 
L 420.172214 83.341987 
L 422.898321 81.337586 
L 428.350534 82.31519 
L 431.076641 84.793815 
L 433.802748 85.924361 
L 439.254962 87.158998 
L 441.981069 85.709466 
L 444.707176 79.663603 
L 447.433282 82.407179 
L 450.159389 79.881809 
L 452.885496 80.515275 
L 455.611603 82.985197 
L 458.33771 82.678417 
L 461.063817 88.20711 
L 461.8 87.723681 
L 461.8 87.723681 
" style="fill:none;stroke:#d62728;stroke-dasharray:9.6,2.4,1.5,2.4;stroke-dashoffset:0;stroke-width:1.5;"/>
   </g>
   <g id="line2d_19">
    <path clip-path="url(#p1a0b703cff)" d="M 57.6 295.488 
L 68.504427 295.488 
L 71.230534 71.165934 
L 73.956641 79.807586 
L 76.682748 80.980386 
L 79.408855 73.015214 
L 82.134962 79.838687 
L 84.861069 76.060858 
L 87.587176 78.917921 
L 90.313282 78.347398 
L 93.039389 69.161216 
L 95.765496 72.937574 
L 98.491603 68.803169 
L 101.21771 68.335365 
L 103.943817 67.445601 
L 106.669924 73.594111 
L 109.396031 69.498934 
L 112.122137 68.405099 
L 114.848244 73.526156 
L 117.574351 71.018735 
L 120.300458 72.32302 
L 123.026565 72.094929 
L 125.752672 70.706876 
L 128.478779 67.098875 
L 131.204885 67.548271 
L 133.930992 68.679981 
L 136.657099 72.01493 
L 139.383206 70.495309 
L 142.109313 70.334427 
L 144.83542 72.553651 
L 147.561527 72.181575 
L 150.287634 72.030265 
L 153.01374 70.380842 
L 155.739847 74.264407 
L 158.465954 70.34698 
L 161.192061 73.526129 
L 163.918168 70.915911 
L 166.644275 74.409786 
L 169.370382 74.56577 
L 172.096489 75.165736 
L 174.822595 79.653443 
L 177.548702 80.696674 
L 180.274809 79.583469 
L 183.000916 82.537669 
L 185.727023 76.116948 
L 188.45313 86.613444 
L 191.179237 90.898538 
L 193.905344 85.540713 
L 196.63145 83.936192 
L 199.357557 91.246962 
L 202.083664 84.169461 
L 204.809771 82.011627 
L 207.535878 86.577322 
L 210.261985 88.119572 
L 212.988092 88.323647 
L 218.440305 82.562357 
L 221.166412 87.946634 
L 223.892519 84.703571 
L 226.618626 83.55375 
L 229.344733 85.556065 
L 232.07084 84.953149 
L 234.796947 86.117084 
L 237.523053 87.412876 
L 240.24916 86.150908 
L 242.975267 81.405377 
L 245.701374 80.449332 
L 248.427481 90.225768 
L 251.153588 91.692152 
L 253.879695 90.410073 
L 256.605802 90.170184 
L 259.331908 88.258286 
L 262.058015 92.568013 
L 264.784122 93.565882 
L 267.510229 93.075647 
L 272.962443 92.650349 
L 275.68855 87.997875 
L 278.414656 81.956839 
L 281.140763 80.758405 
L 283.86687 82.884527 
L 286.592977 77.483065 
L 289.319084 74.888485 
L 292.045191 73.421159 
L 294.771298 70.844513 
L 297.497405 68.484538 
L 300.223511 71.361124 
L 302.949618 73.479121 
L 305.675725 69.010333 
L 308.401832 69.549587 
L 311.127939 68.856273 
L 313.854046 73.832484 
L 316.580153 75.33507 
L 319.30626 70.270798 
L 322.032366 72.361071 
L 324.758473 72.693561 
L 327.48458 68.168205 
L 330.210687 67.537106 
L 332.936794 70.624135 
L 335.662901 71.478658 
L 338.389008 67.572529 
L 341.115115 67.647138 
L 343.841221 72.465901 
L 346.567328 71.303269 
L 349.293435 66.103082 
L 352.019542 66.232355 
L 354.745649 65.082907 
L 357.471756 66.412914 
L 360.197863 66.862011 
L 362.923969 67.459915 
L 365.650076 69.563275 
L 368.376183 72.019175 
L 371.10229 68.661574 
L 373.828397 71.19233 
L 376.554504 69.879875 
L 379.280611 75.905534 
L 382.006718 79.11607 
L 384.732824 74.189279 
L 387.458931 77.377609 
L 390.185038 78.25206 
L 392.911145 78.870416 
L 395.637252 80.183071 
L 398.363359 80.347578 
L 401.089466 79.386623 
L 406.541679 79.889141 
L 409.267786 80.353716 
L 411.993893 82.570148 
L 414.72 82.007412 
L 417.446107 83.786741 
L 420.172214 85.235846 
L 422.898321 81.563906 
L 425.624427 81.410453 
L 428.350534 82.234671 
L 431.076641 82.081293 
L 433.802748 82.867173 
L 436.528855 86.450363 
L 439.254962 86.030678 
L 441.981069 85.291066 
L 444.707176 86.746121 
L 447.433282 87.399758 
L 450.159389 79.981524 
L 452.885496 82.025103 
L 455.611603 81.889122 
L 458.33771 80.622303 
L 461.063817 83.476419 
L 461.8 83.532065 
L 461.8 83.532065 
" style="fill:none;stroke:#9467bd;stroke-dasharray:1.5,2.475;stroke-dashoffset:0;stroke-width:1.5;"/>
   </g>
   <g id="line2d_20">
    <path clip-path="url(#p1a0b703cff)" d="M 57.6 295.488 
L 76.682748 295.488 
L 79.408855 76.399412 
L 82.134962 81.430561 
L 84.861069 75.895249 
L 87.587176 77.302131 
L 90.313282 85.76384 
L 93.039389 83.061717 
L 95.765496 78.315526 
L 98.491603 78.20979 
L 101.21771 69.981159 
L 103.943817 75.537988 
L 106.669924 65.005756 
L 109.396031 65.538704 
L 112.122137 64.716316 
L 114.848244 71.774193 
L 117.574351 69.428483 
L 120.300458 68.263975 
L 123.026565 74.257461 
L 125.752672 72.63581 
L 128.478779 74.512099 
L 131.204885 72.692243 
L 133.930992 71.31904 
L 136.657099 68.993181 
L 139.383206 68.797357 
L 142.109313 70.396813 
L 144.83542 72.436691 
L 147.561527 72.762907 
L 150.287634 71.75609 
L 153.01374 71.682 
L 155.739847 74.272791 
L 158.465954 72.181304 
L 161.192061 71.733578 
L 163.918168 72.620305 
L 166.644275 71.106721 
L 169.370382 73.179272 
L 172.096489 69.265204 
L 174.822595 74.431771 
L 177.548702 76.082186 
L 180.274809 78.796789 
L 183.000916 81.192427 
L 185.727023 77.403089 
L 188.45313 79.344406 
L 191.179237 82.426672 
L 193.905344 78.096049 
L 196.63145 85.92844 
L 199.357557 91.553146 
L 202.083664 86.601808 
L 204.809771 80.152161 
L 207.535878 87.75606 
L 210.261985 82.895479 
L 212.988092 86.417304 
L 215.714198 88.632937 
L 218.440305 89.326814 
L 221.166412 87.443203 
L 223.892519 83.948018 
L 226.618626 82.351918 
L 229.344733 88.592966 
L 232.07084 87.174714 
L 234.796947 83.16046 
L 237.523053 87.24923 
L 240.24916 79.639716 
L 242.975267 81.538476 
L 245.701374 82.334688 
L 248.427481 86.248826 
L 251.153588 80.435245 
L 253.879695 81.188387 
L 256.605802 100.427343 
L 259.331908 96.826063 
L 264.784122 98.58284 
L 267.510229 93.992628 
L 270.236336 94.732838 
L 272.962443 93.536571 
L 275.68855 93.352904 
L 278.414656 92.506873 
L 281.140763 90.600411 
L 283.86687 89.406203 
L 286.592977 82.64275 
L 289.319084 81.48635 
L 292.045191 79.774007 
L 294.771298 76.892337 
L 297.497405 72.558244 
L 300.223511 75.079065 
L 302.949618 72.940986 
L 305.675725 65.812427 
L 308.401832 66.302596 
L 311.127939 66.038676 
L 313.854046 71.110073 
L 316.580153 70.73583 
L 319.30626 66.968666 
L 322.032366 73.504224 
L 324.758473 74.775974 
L 327.48458 70.372062 
L 330.210687 66.395055 
L 332.936794 74.030349 
L 335.662901 72.763758 
L 338.389008 66.723367 
L 341.115115 66.692646 
L 343.841221 65.408231 
L 346.567328 70.475978 
L 349.293435 68.426667 
L 352.019542 74.236036 
L 354.745649 68.879979 
L 357.471756 64.986104 
L 360.197863 64.981314 
L 362.923969 66.114057 
L 365.650076 66.524316 
L 368.376183 65.419424 
L 371.10229 66.508941 
L 373.828397 68.887416 
L 376.554504 71.006328 
L 379.280611 70.740884 
L 382.006718 76.551988 
L 384.732824 75.232252 
L 390.185038 77.752983 
L 392.911145 73.034289 
L 395.637252 76.055399 
L 398.363359 78.402371 
L 401.089466 79.061672 
L 403.815573 80.3915 
L 406.541679 78.991402 
L 409.267786 79.280483 
L 411.993893 80.285888 
L 414.72 80.900524 
L 417.446107 80.884485 
L 420.172214 83.391419 
L 422.898321 82.079117 
L 425.624427 83.514777 
L 428.350534 84.283423 
L 431.076641 82.075563 
L 433.802748 82.933911 
L 436.528855 83.109761 
L 439.254962 82.846122 
L 441.981069 81.848208 
L 444.707176 85.464828 
L 447.433282 86.823003 
L 450.159389 86.93962 
L 452.885496 87.68189 
L 455.611603 88.958358 
L 458.33771 81.118974 
L 461.063817 84.685141 
L 461.8 83.892991 
L 461.8 83.892991 
" style="fill:none;stroke:#ff0000;stroke-linecap:square;stroke-width:1.5;"/>
   </g>
   <g id="line2d_21">
    <path clip-path="url(#p1a0b703cff)" d="M 57.6 295.488 
L 90.313282 295.488 
L 93.039389 85.294134 
L 95.765496 79.678535 
L 98.491603 77.697183 
L 101.21771 77.519755 
L 103.943817 79.245717 
L 106.669924 74.835477 
L 109.396031 82.754357 
L 112.122137 80.379597 
L 114.848244 71.025026 
L 117.574351 75.733412 
L 120.300458 59.048739 
L 123.026565 62.982624 
L 125.752672 65.30733 
L 128.478779 73.492442 
L 131.204885 70.845033 
L 133.930992 70.418598 
L 136.657099 77.513493 
L 139.383206 74.283459 
L 142.109313 75.119062 
L 144.83542 75.231811 
L 147.561527 74.465174 
L 150.287634 69.655332 
L 153.01374 68.949494 
L 155.739847 73.676006 
L 161.192061 72.544223 
L 163.918168 72.395497 
L 166.644275 73.989554 
L 169.370382 72.383014 
L 172.096489 71.886376 
L 174.822595 72.007598 
L 177.548702 74.7358 
L 180.274809 73.708689 
L 183.000916 75.143597 
L 185.727023 68.061578 
L 188.45313 75.726408 
L 191.179237 75.815129 
L 193.905344 76.252101 
L 196.63145 79.036221 
L 199.357557 82.137339 
L 202.083664 79.184145 
L 204.809771 78.04098 
L 207.535878 77.449309 
L 210.261985 83.920603 
L 212.988092 89.565947 
L 215.714198 87.976864 
L 218.440305 82.484296 
L 221.166412 88.017566 
L 223.892519 84.259377 
L 226.618626 86.317982 
L 229.344733 86.239716 
L 232.07084 91.354897 
L 234.796947 87.057034 
L 237.523053 85.003453 
L 240.24916 84.152557 
L 242.975267 85.735236 
L 245.701374 81.701799 
L 248.427481 87.985939 
L 251.153588 90.131801 
L 253.879695 73.543901 
L 256.605802 81.915853 
L 259.331908 86.101093 
L 262.058015 86.880069 
L 264.784122 75.641223 
L 267.510229 81.679823 
L 270.236336 117.679896 
L 272.962443 108.071636 
L 275.68855 102.497855 
L 278.414656 99.745769 
L 281.140763 93.787009 
L 283.86687 98.50259 
L 286.592977 95.176589 
L 289.319084 92.961714 
L 292.045191 91.384118 
L 294.771298 90.92851 
L 297.497405 85.767315 
L 300.223511 84.542505 
L 302.949618 83.161386 
L 305.675725 75.646101 
L 308.401832 73.508816 
L 311.127939 69.650204 
L 313.854046 71.958163 
L 316.580153 69.130553 
L 319.30626 64.79885 
L 322.032366 68.349133 
L 324.758473 68.984193 
L 327.48458 65.028739 
L 330.210687 64.134083 
L 332.936794 73.528486 
L 335.662901 75.77778 
L 338.389008 67.202926 
L 341.115115 71.737159 
L 343.841221 68.555014 
L 346.567328 68.599685 
L 349.293435 65.291897 
L 352.019542 68.125814 
L 354.745649 67.480911 
L 357.471756 65.196184 
L 360.197863 67.390554 
L 362.923969 67.752104 
L 365.650076 72.994981 
L 368.376183 67.531272 
L 371.10229 64.136863 
L 373.828397 66.906633 
L 376.554504 61.180408 
L 379.280611 67.403162 
L 382.006718 69.255211 
L 384.732824 67.445961 
L 387.458931 69.325876 
L 390.185038 73.278505 
L 392.911145 71.625071 
L 395.637252 75.79751 
L 398.363359 75.572915 
L 401.089466 77.695844 
L 403.815573 79.461976 
L 406.541679 72.58815 
L 409.267786 76.049677 
L 411.993893 78.490909 
L 414.72 80.193032 
L 417.446107 80.563158 
L 420.172214 80.137992 
L 422.898321 78.758039 
L 428.350534 79.676694 
L 431.076641 80.2449 
L 433.802748 83.535759 
L 436.528855 83.265269 
L 439.254962 83.703128 
L 441.981069 83.967989 
L 444.707176 82.497087 
L 447.433282 84.18246 
L 450.159389 84.80632 
L 452.885496 84.345028 
L 455.611603 86.1156 
L 458.33771 88.630206 
L 461.063817 89.481235 
L 461.8 89.234191 
L 461.8 89.234191 
" style="fill:none;stroke:#ff0000;stroke-dasharray:5.55,2.4;stroke-dashoffset:0;stroke-width:1.5;"/>
   </g>
   <g id="line2d_22">
    <path clip-path="url(#p1a0b703cff)" d="M 57.6 295.488 
L 112.122137 295.488 
L 114.848244 82.433991 
L 117.574351 79.930029 
L 120.300458 86.599326 
L 123.026565 85.994508 
L 125.752672 84.42531 
L 128.478779 80.724123 
L 131.204885 83.74074 
L 133.930992 82.219739 
L 136.657099 74.924293 
L 139.383206 77.756755 
L 142.109313 61.517211 
L 144.83542 66.684723 
L 147.561527 68.254034 
L 150.287634 77.255722 
L 153.01374 74.888213 
L 155.739847 72.312371 
L 158.465954 77.39732 
L 161.192061 75.24289 
L 163.918168 77.299181 
L 166.644275 75.829871 
L 169.370382 76.260489 
L 172.096489 69.989905 
L 174.822595 69.478835 
L 177.548702 74.540106 
L 180.274809 77.536447 
L 183.000916 77.016581 
L 185.727023 70.477733 
L 188.45313 75.659602 
L 191.179237 74.050123 
L 193.905344 72.238816 
L 196.63145 71.815072 
L 199.357557 74.723397 
L 202.083664 70.541487 
L 204.809771 70.475479 
L 207.535878 70.049463 
L 210.261985 73.296295 
L 212.988092 74.933638 
L 215.714198 78.665042 
L 218.440305 76.955571 
L 221.166412 79.82126 
L 223.892519 79.97834 
L 226.618626 81.720335 
L 229.344733 76.769937 
L 232.07084 87.449572 
L 234.796947 87.702845 
L 237.523053 86.536078 
L 240.24916 85.095055 
L 242.975267 86.595968 
L 245.701374 81.789789 
L 248.427481 90.41677 
L 251.153588 88.731997 
L 253.879695 92.285779 
L 256.605802 91.383247 
L 259.331908 87.659791 
L 262.058015 86.747056 
L 264.784122 93.719374 
L 270.236336 83.017462 
L 272.962443 85.617237 
L 275.68855 73.656582 
L 278.414656 86.760279 
L 281.140763 89.917335 
L 283.86687 93.845534 
L 286.592977 81.740545 
L 289.319084 85.007541 
L 292.045191 120.09768 
L 294.771298 109.920199 
L 297.497405 102.488943 
L 300.223511 98.715761 
L 302.949618 94.565147 
L 305.675725 97.428172 
L 308.401832 94.885435 
L 311.127939 90.55675 
L 313.854046 91.594671 
L 316.580153 89.831884 
L 319.30626 81.520826 
L 322.032366 83.089048 
L 324.758473 83.82824 
L 327.48458 74.243418 
L 330.210687 68.834895 
L 332.936794 69.950017 
L 335.662901 74.69416 
L 338.389008 63.474731 
L 341.115115 64.925844 
L 343.841221 63.423173 
L 346.567328 64.816213 
L 349.293435 64.250685 
L 352.019542 67.169336 
L 354.745649 68.873346 
L 357.471756 66.098301 
L 360.197863 64.992597 
L 362.923969 69.772361 
L 365.650076 69.703069 
L 368.376183 67.296427 
L 371.10229 57.885822 
L 373.828397 66.390181 
L 376.554504 63.260071 
L 379.280611 67.778997 
L 382.006718 70.928487 
L 384.732824 67.970297 
L 387.458931 73.750297 
L 390.185038 65.991304 
L 392.911145 64.693309 
L 395.637252 66.507536 
L 398.363359 63.872198 
L 401.089466 66.998137 
L 403.815573 61.37672 
L 406.541679 64.292376 
L 409.267786 72.303002 
L 411.993893 75.45332 
L 414.72 66.985357 
L 417.446107 74.714539 
L 420.172214 88.381095 
L 422.898321 85.102853 
L 425.624427 82.397589 
L 428.350534 72.573962 
L 431.076641 74.841195 
L 433.802748 77.799589 
L 436.528855 79.820092 
L 439.254962 79.584773 
L 441.981069 79.013242 
L 444.707176 80.2704 
L 447.433282 81.908209 
L 450.159389 82.146003 
L 452.885496 82.694625 
L 455.611603 87.87355 
L 458.33771 87.241152 
L 461.063817 89.215987 
L 461.8 89.021257 
L 461.8 89.021257 
" style="fill:none;stroke:#ff0000;stroke-dasharray:9.6,2.4,1.5,2.4;stroke-dashoffset:0;stroke-width:1.5;"/>
   </g>
   <g id="line2d_23">
    <path clip-path="url(#p1a0b703cff)" d="M 57.6 295.488 
L 147.561527 295.488 
L 150.287634 82.681123 
L 153.01374 89.8277 
L 155.739847 91.749474 
L 158.465954 87.067694 
L 161.192061 82.934453 
L 163.918168 81.152319 
L 166.644275 86.867133 
L 169.370382 84.462369 
L 172.096489 72.745956 
L 174.822595 77.844268 
L 177.548702 72.435517 
L 180.274809 76.429473 
L 183.000916 73.596835 
L 185.727023 78.065207 
L 188.45313 78.556371 
L 191.179237 77.137149 
L 193.905344 80.359005 
L 196.63145 75.363305 
L 199.357557 81.034968 
L 202.083664 77.889279 
L 204.809771 73.152057 
L 207.535878 67.492977 
L 210.261985 67.649512 
L 215.714198 74.578808 
L 218.440305 69.234454 
L 221.166412 73.789669 
L 223.892519 75.144324 
L 226.618626 74.471356 
L 229.344733 69.94398 
L 232.07084 74.289014 
L 234.796947 70.897248 
L 237.523053 68.757362 
L 240.24916 71.580335 
L 242.975267 67.015585 
L 245.701374 72.177448 
L 248.427481 76.981342 
L 251.153588 78.255055 
L 253.879695 80.142601 
L 256.605802 82.542315 
L 259.331908 82.126306 
L 262.058015 83.333959 
L 264.784122 80.245592 
L 267.510229 90.35057 
L 270.236336 94.847691 
L 272.962443 87.904912 
L 275.68855 83.414026 
L 278.414656 92.056838 
L 281.140763 88.591374 
L 283.86687 89.420711 
L 286.592977 90.700522 
L 289.319084 92.809307 
L 292.045191 92.395901 
L 294.771298 87.173544 
L 297.497405 86.588393 
L 300.223511 92.472553 
L 302.949618 84.511918 
L 305.675725 78.957033 
L 308.401832 90.666597 
L 311.127939 85.634821 
L 313.854046 98.463803 
L 316.580153 103.12591 
L 319.30626 95.815305 
L 322.032366 93.136662 
L 324.758473 101.576618 
L 327.48458 112.227068 
L 330.210687 94.155716 
L 332.936794 93.902878 
L 335.662901 101.740861 
L 338.389008 89.357959 
L 341.115115 92.620214 
L 343.841221 89.441472 
L 346.567328 89.590704 
L 349.293435 85.130781 
L 352.019542 85.886359 
L 354.745649 82.165602 
L 357.471756 76.149292 
L 360.197863 72.254694 
L 362.923969 74.246306 
L 365.650076 75.525218 
L 368.376183 68.636154 
L 371.10229 55.933678 
L 373.828397 63.159087 
L 376.554504 54.982778 
L 379.280611 61.66746 
L 382.006718 62.864066 
L 384.732824 66.583941 
L 387.458931 63.433466 
L 390.185038 61.658604 
L 392.911145 61.302334 
L 395.637252 68.282539 
L 398.363359 69.552194 
L 401.089466 63.423845 
L 403.815573 63.74162 
L 406.541679 58.004312 
L 409.267786 63.032669 
L 411.993893 62.312636 
L 414.72 63.833664 
L 417.446107 66.054753 
L 420.172214 66.175635 
L 422.898321 71.361492 
L 425.624427 65.034806 
L 428.350534 64.391489 
L 431.076641 64.271996 
L 433.802748 60.084371 
L 436.528855 56.599228 
L 439.254962 53.568 
L 441.981069 70.880181 
L 444.707176 71.009202 
L 447.433282 72.556161 
L 450.159389 66.400722 
L 452.885496 91.359255 
L 455.611603 112.047795 
L 458.33771 89.015917 
L 461.063817 83.830222 
L 461.8 81.572427 
L 461.8 81.572427 
" style="fill:none;stroke:#ff0000;stroke-dasharray:1.5,2.475;stroke-dashoffset:0;stroke-width:1.5;"/>
   </g>
   <g id="patch_3">
    <path d="M 57.6 307.584 
L 57.6 41.472 
" style="fill:none;stroke:#000000;stroke-linecap:square;stroke-linejoin:miter;stroke-width:0.8;"/>
   </g>
   <g id="patch_4">
    <path d="M 414.72 307.584 
L 414.72 41.472 
" style="fill:none;stroke:#000000;stroke-linecap:square;stroke-linejoin:miter;stroke-width:0.8;"/>
   </g>
   <g id="patch_5">
    <path d="M 57.6 307.584 
L 414.72 307.584 
" style="fill:none;stroke:#000000;stroke-linecap:square;stroke-linejoin:miter;stroke-width:0.8;"/>
   </g>
   <g id="patch_6">
    <path d="M 57.6 41.472 
L 414.72 41.472 
" style="fill:none;stroke:#000000;stroke-linecap:square;stroke-linejoin:miter;stroke-width:0.8;"/>
   </g>
   <g id="text_17">
    <!-- Exemplo de lance real VS predito -->
    <defs>
     <path d="M 9.8125 72.90625 
L 55.90625 72.90625 
L 55.90625 64.59375 
L 19.671875 64.59375 
L 19.671875 43.015625 
L 54.390625 43.015625 
L 54.390625 34.71875 
L 19.671875 34.71875 
L 19.671875 8.296875 
L 56.78125 8.296875 
L 56.78125 0 
L 9.8125 0 
z
" id="DejaVuSans-69"/>
     <path d="M 54.890625 54.6875 
L 35.109375 28.078125 
L 55.90625 0 
L 45.3125 0 
L 29.390625 21.484375 
L 13.484375 0 
L 2.875 0 
L 24.125 28.609375 
L 4.6875 54.6875 
L 15.28125 54.6875 
L 29.78125 35.203125 
L 44.28125 54.6875 
z
" id="DejaVuSans-120"/>
     <path d="M 18.109375 8.203125 
L 18.109375 -20.796875 
L 9.078125 -20.796875 
L 9.078125 54.6875 
L 18.109375 54.6875 
L 18.109375 46.390625 
Q 20.953125 51.265625 25.265625 53.625 
Q 29.59375 56 35.59375 56 
Q 45.5625 56 51.78125 48.09375 
Q 58.015625 40.1875 58.015625 27.296875 
Q 58.015625 14.40625 51.78125 6.484375 
Q 45.5625 -1.421875 35.59375 -1.421875 
Q 29.59375 -1.421875 25.265625 0.953125 
Q 20.953125 3.328125 18.109375 8.203125 
z
M 48.6875 27.296875 
Q 48.6875 37.203125 44.609375 42.84375 
Q 40.53125 48.484375 33.40625 48.484375 
Q 26.265625 48.484375 22.1875 42.84375 
Q 18.109375 37.203125 18.109375 27.296875 
Q 18.109375 17.390625 22.1875 11.75 
Q 26.265625 6.109375 33.40625 6.109375 
Q 40.53125 6.109375 44.609375 11.75 
Q 48.6875 17.390625 48.6875 27.296875 
z
" id="DejaVuSans-112"/>
     <path d="M 9.421875 75.984375 
L 18.40625 75.984375 
L 18.40625 0 
L 9.421875 0 
z
" id="DejaVuSans-108"/>
     <path id="DejaVuSans-32"/>
     <path d="M 34.28125 27.484375 
Q 23.390625 27.484375 19.1875 25 
Q 14.984375 22.515625 14.984375 16.5 
Q 14.984375 11.71875 18.140625 8.90625 
Q 21.296875 6.109375 26.703125 6.109375 
Q 34.1875 6.109375 38.703125 11.40625 
Q 43.21875 16.703125 43.21875 25.484375 
L 43.21875 27.484375 
z
M 52.203125 31.203125 
L 52.203125 0 
L 43.21875 0 
L 43.21875 8.296875 
Q 40.140625 3.328125 35.546875 0.953125 
Q 30.953125 -1.421875 24.3125 -1.421875 
Q 15.921875 -1.421875 10.953125 3.296875 
Q 6 8.015625 6 15.921875 
Q 6 25.140625 12.171875 29.828125 
Q 18.359375 34.515625 30.609375 34.515625 
L 43.21875 34.515625 
L 43.21875 35.40625 
Q 43.21875 41.609375 39.140625 45 
Q 35.0625 48.390625 27.6875 48.390625 
Q 23 48.390625 18.546875 47.265625 
Q 14.109375 46.140625 10.015625 43.890625 
L 10.015625 52.203125 
Q 14.9375 54.109375 19.578125 55.046875 
Q 24.21875 56 28.609375 56 
Q 40.484375 56 46.34375 49.84375 
Q 52.203125 43.703125 52.203125 31.203125 
z
" id="DejaVuSans-97"/>
     <path d="M 28.609375 0 
L 0.78125 72.90625 
L 11.078125 72.90625 
L 34.1875 11.53125 
L 57.328125 72.90625 
L 67.578125 72.90625 
L 39.796875 0 
z
" id="DejaVuSans-86"/>
     <path d="M 53.515625 70.515625 
L 53.515625 60.890625 
Q 47.90625 63.578125 42.921875 64.890625 
Q 37.9375 66.21875 33.296875 66.21875 
Q 25.25 66.21875 20.875 63.09375 
Q 16.5 59.96875 16.5 54.203125 
Q 16.5 49.359375 19.40625 46.890625 
Q 22.3125 44.4375 30.421875 42.921875 
L 36.375 41.703125 
Q 47.40625 39.59375 52.65625 34.296875 
Q 57.90625 29 57.90625 20.125 
Q 57.90625 9.515625 50.796875 4.046875 
Q 43.703125 -1.421875 29.984375 -1.421875 
Q 24.8125 -1.421875 18.96875 -0.25 
Q 13.140625 0.921875 6.890625 3.21875 
L 6.890625 13.375 
Q 12.890625 10.015625 18.65625 8.296875 
Q 24.421875 6.59375 29.984375 6.59375 
Q 38.421875 6.59375 43.015625 9.90625 
Q 47.609375 13.234375 47.609375 19.390625 
Q 47.609375 24.75 44.3125 27.78125 
Q 41.015625 30.8125 33.5 32.328125 
L 27.484375 33.5 
Q 16.453125 35.6875 11.515625 40.375 
Q 6.59375 45.0625 6.59375 53.421875 
Q 6.59375 63.09375 13.40625 68.65625 
Q 20.21875 74.21875 32.171875 74.21875 
Q 37.3125 74.21875 42.625 73.28125 
Q 47.953125 72.359375 53.515625 70.515625 
z
" id="DejaVuSans-83"/>
    </defs>
    <g transform="translate(136.085625 35.472)scale(0.12 -0.12)">
     <use xlink:href="#DejaVuSans-69"/>
     <use x="63.183594" xlink:href="#DejaVuSans-120"/>
     <use x="122.316406" xlink:href="#DejaVuSans-101"/>
     <use x="183.839844" xlink:href="#DejaVuSans-109"/>
     <use x="281.251953" xlink:href="#DejaVuSans-112"/>
     <use x="344.728516" xlink:href="#DejaVuSans-108"/>
     <use x="372.511719" xlink:href="#DejaVuSans-111"/>
     <use x="433.693359" xlink:href="#DejaVuSans-32"/>
     <use x="465.480469" xlink:href="#DejaVuSans-100"/>
     <use x="528.957031" xlink:href="#DejaVuSans-101"/>
     <use x="590.480469" xlink:href="#DejaVuSans-32"/>
     <use x="622.267578" xlink:href="#DejaVuSans-108"/>
     <use x="650.050781" xlink:href="#DejaVuSans-97"/>
     <use x="711.330078" xlink:href="#DejaVuSans-110"/>
     <use x="774.708984" xlink:href="#DejaVuSans-99"/>
     <use x="829.689453" xlink:href="#DejaVuSans-101"/>
     <use x="891.212891" xlink:href="#DejaVuSans-32"/>
     <use x="923" xlink:href="#DejaVuSans-114"/>
     <use x="964.082031" xlink:href="#DejaVuSans-101"/>
     <use x="1025.605469" xlink:href="#DejaVuSans-97"/>
     <use x="1086.884766" xlink:href="#DejaVuSans-108"/>
     <use x="1114.667969" xlink:href="#DejaVuSans-32"/>
     <use x="1146.455078" xlink:href="#DejaVuSans-86"/>
     <use x="1214.863281" xlink:href="#DejaVuSans-83"/>
     <use x="1278.339844" xlink:href="#DejaVuSans-32"/>
     <use x="1310.126953" xlink:href="#DejaVuSans-112"/>
     <use x="1373.603516" xlink:href="#DejaVuSans-114"/>
     <use x="1414.685547" xlink:href="#DejaVuSans-101"/>
     <use x="1476.208984" xlink:href="#DejaVuSans-100"/>
     <use x="1539.685547" xlink:href="#DejaVuSans-105"/>
     <use x="1567.46875" xlink:href="#DejaVuSans-116"/>
     <use x="1606.677734" xlink:href="#DejaVuSans-111"/>
    </g>
   </g>
   <g id="legend_1">
    <g id="patch_7">
     <path d="M 339.623125 304.584 
L 409.72 304.584 
Q 411.72 304.584 411.72 302.584 
L 411.72 171.480875 
Q 411.72 169.480875 409.72 169.480875 
L 339.623125 169.480875 
Q 337.623125 169.480875 337.623125 171.480875 
L 337.623125 302.584 
Q 337.623125 304.584 339.623125 304.584 
z
" style="fill:#4c4c4c;opacity:0.5;stroke:#4c4c4c;stroke-linejoin:miter;"/>
    </g>
    <g id="patch_8">
     <path d="M 337.623125 302.584 
L 407.72 302.584 
Q 409.72 302.584 409.72 300.584 
L 409.72 169.480875 
Q 409.72 167.480875 407.72 167.480875 
L 337.623125 167.480875 
Q 335.623125 167.480875 335.623125 169.480875 
L 335.623125 300.584 
Q 335.623125 302.584 337.623125 302.584 
z
" style="fill:#ffffff;stroke:#cccccc;stroke-linejoin:miter;"/>
    </g>
    <g id="line2d_24">
     <path d="M 339.623125 175.579313 
L 359.623125 175.579313 
" style="fill:none;stroke:#1f77b4;stroke-linecap:square;stroke-width:1.5;"/>
    </g>
    <g id="line2d_25"/>
    <g id="text_18">
     <!-- real -->
     <g transform="translate(367.623125 179.079313)scale(0.1 -0.1)">
      <use xlink:href="#DejaVuSans-114"/>
      <use x="41.082031" xlink:href="#DejaVuSans-101"/>
      <use x="102.605469" xlink:href="#DejaVuSans-97"/>
      <use x="163.884766" xlink:href="#DejaVuSans-108"/>
     </g>
    </g>
    <g id="line2d_26">
     <path d="M 339.623125 190.257438 
L 359.623125 190.257438 
" style="fill:none;stroke:#ff7f0e;stroke-linecap:square;stroke-width:1.5;"/>
    </g>
    <g id="line2d_27"/>
    <g id="text_19">
     <!-- gap: 1 -->
     <defs>
      <path d="M 45.40625 27.984375 
Q 45.40625 37.75 41.375 43.109375 
Q 37.359375 48.484375 30.078125 48.484375 
Q 22.859375 48.484375 18.828125 43.109375 
Q 14.796875 37.75 14.796875 27.984375 
Q 14.796875 18.265625 18.828125 12.890625 
Q 22.859375 7.515625 30.078125 7.515625 
Q 37.359375 7.515625 41.375 12.890625 
Q 45.40625 18.265625 45.40625 27.984375 
z
M 54.390625 6.78125 
Q 54.390625 -7.171875 48.1875 -13.984375 
Q 42 -20.796875 29.203125 -20.796875 
Q 24.46875 -20.796875 20.265625 -20.09375 
Q 16.0625 -19.390625 12.109375 -17.921875 
L 12.109375 -9.1875 
Q 16.0625 -11.328125 19.921875 -12.34375 
Q 23.78125 -13.375 27.78125 -13.375 
Q 36.625 -13.375 41.015625 -8.765625 
Q 45.40625 -4.15625 45.40625 5.171875 
L 45.40625 9.625 
Q 42.625 4.78125 38.28125 2.390625 
Q 33.9375 0 27.875 0 
Q 17.828125 0 11.671875 7.65625 
Q 5.515625 15.328125 5.515625 27.984375 
Q 5.515625 40.671875 11.671875 48.328125 
Q 17.828125 56 27.875 56 
Q 33.9375 56 38.28125 53.609375 
Q 42.625 51.21875 45.40625 46.390625 
L 45.40625 54.6875 
L 54.390625 54.6875 
z
" id="DejaVuSans-103"/>
      <path d="M 11.71875 12.40625 
L 22.015625 12.40625 
L 22.015625 0 
L 11.71875 0 
z
M 11.71875 51.703125 
L 22.015625 51.703125 
L 22.015625 39.3125 
L 11.71875 39.3125 
z
" id="DejaVuSans-58"/>
     </defs>
     <g transform="translate(367.623125 193.757438)scale(0.1 -0.1)">
      <use xlink:href="#DejaVuSans-103"/>
      <use x="63.476562" xlink:href="#DejaVuSans-97"/>
      <use x="124.755859" xlink:href="#DejaVuSans-112"/>
      <use x="188.232422" xlink:href="#DejaVuSans-58"/>
      <use x="221.923828" xlink:href="#DejaVuSans-32"/>
      <use x="253.710938" xlink:href="#DejaVuSans-49"/>
     </g>
    </g>
    <g id="line2d_28">
     <path d="M 339.623125 204.935563 
L 359.623125 204.935563 
" style="fill:none;stroke:#2ca02c;stroke-dasharray:5.55,2.4;stroke-dashoffset:0;stroke-width:1.5;"/>
    </g>
    <g id="line2d_29"/>
    <g id="text_20">
     <!-- gap: 2 -->
     <g transform="translate(367.623125 208.435563)scale(0.1 -0.1)">
      <use xlink:href="#DejaVuSans-103"/>
      <use x="63.476562" xlink:href="#DejaVuSans-97"/>
      <use x="124.755859" xlink:href="#DejaVuSans-112"/>
      <use x="188.232422" xlink:href="#DejaVuSans-58"/>
      <use x="221.923828" xlink:href="#DejaVuSans-32"/>
      <use x="253.710938" xlink:href="#DejaVuSans-50"/>
     </g>
    </g>
    <g id="line2d_30">
     <path d="M 339.623125 219.613688 
L 359.623125 219.613688 
" style="fill:none;stroke:#d62728;stroke-dasharray:9.6,2.4,1.5,2.4;stroke-dashoffset:0;stroke-width:1.5;"/>
    </g>
    <g id="line2d_31"/>
    <g id="text_21">
     <!-- gap: 3 -->
     <defs>
      <path d="M 40.578125 39.3125 
Q 47.65625 37.796875 51.625 33 
Q 55.609375 28.21875 55.609375 21.1875 
Q 55.609375 10.40625 48.1875 4.484375 
Q 40.765625 -1.421875 27.09375 -1.421875 
Q 22.515625 -1.421875 17.65625 -0.515625 
Q 12.796875 0.390625 7.625 2.203125 
L 7.625 11.71875 
Q 11.71875 9.328125 16.59375 8.109375 
Q 21.484375 6.890625 26.8125 6.890625 
Q 36.078125 6.890625 40.9375 10.546875 
Q 45.796875 14.203125 45.796875 21.1875 
Q 45.796875 27.640625 41.28125 31.265625 
Q 36.765625 34.90625 28.71875 34.90625 
L 20.21875 34.90625 
L 20.21875 43.015625 
L 29.109375 43.015625 
Q 36.375 43.015625 40.234375 45.921875 
Q 44.09375 48.828125 44.09375 54.296875 
Q 44.09375 59.90625 40.109375 62.90625 
Q 36.140625 65.921875 28.71875 65.921875 
Q 24.65625 65.921875 20.015625 65.03125 
Q 15.375 64.15625 9.8125 62.3125 
L 9.8125 71.09375 
Q 15.4375 72.65625 20.34375 73.4375 
Q 25.25 74.21875 29.59375 74.21875 
Q 40.828125 74.21875 47.359375 69.109375 
Q 53.90625 64.015625 53.90625 55.328125 
Q 53.90625 49.265625 50.4375 45.09375 
Q 46.96875 40.921875 40.578125 39.3125 
z
" id="DejaVuSans-51"/>
     </defs>
     <g transform="translate(367.623125 223.113688)scale(0.1 -0.1)">
      <use xlink:href="#DejaVuSans-103"/>
      <use x="63.476562" xlink:href="#DejaVuSans-97"/>
      <use x="124.755859" xlink:href="#DejaVuSans-112"/>
      <use x="188.232422" xlink:href="#DejaVuSans-58"/>
      <use x="221.923828" xlink:href="#DejaVuSans-32"/>
      <use x="253.710938" xlink:href="#DejaVuSans-51"/>
     </g>
    </g>
    <g id="line2d_32">
     <path d="M 339.623125 234.291813 
L 359.623125 234.291813 
" style="fill:none;stroke:#9467bd;stroke-dasharray:1.5,2.475;stroke-dashoffset:0;stroke-width:1.5;"/>
    </g>
    <g id="line2d_33"/>
    <g id="text_22">
     <!-- gap: 5 -->
     <defs>
      <path d="M 10.796875 72.90625 
L 49.515625 72.90625 
L 49.515625 64.59375 
L 19.828125 64.59375 
L 19.828125 46.734375 
Q 21.96875 47.46875 24.109375 47.828125 
Q 26.265625 48.1875 28.421875 48.1875 
Q 40.625 48.1875 47.75 41.5 
Q 54.890625 34.8125 54.890625 23.390625 
Q 54.890625 11.625 47.5625 5.09375 
Q 40.234375 -1.421875 26.90625 -1.421875 
Q 22.3125 -1.421875 17.546875 -0.640625 
Q 12.796875 0.140625 7.71875 1.703125 
L 7.71875 11.625 
Q 12.109375 9.234375 16.796875 8.0625 
Q 21.484375 6.890625 26.703125 6.890625 
Q 35.15625 6.890625 40.078125 11.328125 
Q 45.015625 15.765625 45.015625 23.390625 
Q 45.015625 31 40.078125 35.4375 
Q 35.15625 39.890625 26.703125 39.890625 
Q 22.75 39.890625 18.8125 39.015625 
Q 14.890625 38.140625 10.796875 36.28125 
z
" id="DejaVuSans-53"/>
     </defs>
     <g transform="translate(367.623125 237.791813)scale(0.1 -0.1)">
      <use xlink:href="#DejaVuSans-103"/>
      <use x="63.476562" xlink:href="#DejaVuSans-97"/>
      <use x="124.755859" xlink:href="#DejaVuSans-112"/>
      <use x="188.232422" xlink:href="#DejaVuSans-58"/>
      <use x="221.923828" xlink:href="#DejaVuSans-32"/>
      <use x="253.710938" xlink:href="#DejaVuSans-53"/>
     </g>
    </g>
    <g id="line2d_34">
     <path d="M 339.623125 248.969938 
L 359.623125 248.969938 
" style="fill:none;stroke:#ff0000;stroke-linecap:square;stroke-width:1.5;"/>
    </g>
    <g id="line2d_35"/>
    <g id="text_23">
     <!-- gap: 8 -->
     <g transform="translate(367.623125 252.469938)scale(0.1 -0.1)">
      <use xlink:href="#DejaVuSans-103"/>
      <use x="63.476562" xlink:href="#DejaVuSans-97"/>
      <use x="124.755859" xlink:href="#DejaVuSans-112"/>
      <use x="188.232422" xlink:href="#DejaVuSans-58"/>
      <use x="221.923828" xlink:href="#DejaVuSans-32"/>
      <use x="253.710938" xlink:href="#DejaVuSans-56"/>
     </g>
    </g>
    <g id="line2d_36">
     <path d="M 339.623125 263.648063 
L 359.623125 263.648063 
" style="fill:none;stroke:#ff0000;stroke-dasharray:5.55,2.4;stroke-dashoffset:0;stroke-width:1.5;"/>
    </g>
    <g id="line2d_37"/>
    <g id="text_24">
     <!-- gap: 13 -->
     <g transform="translate(367.623125 267.148063)scale(0.1 -0.1)">
      <use xlink:href="#DejaVuSans-103"/>
      <use x="63.476562" xlink:href="#DejaVuSans-97"/>
      <use x="124.755859" xlink:href="#DejaVuSans-112"/>
      <use x="188.232422" xlink:href="#DejaVuSans-58"/>
      <use x="221.923828" xlink:href="#DejaVuSans-32"/>
      <use x="253.710938" xlink:href="#DejaVuSans-49"/>
      <use x="317.333984" xlink:href="#DejaVuSans-51"/>
     </g>
    </g>
    <g id="line2d_38">
     <path d="M 339.623125 278.326188 
L 359.623125 278.326188 
" style="fill:none;stroke:#ff0000;stroke-dasharray:9.6,2.4,1.5,2.4;stroke-dashoffset:0;stroke-width:1.5;"/>
    </g>
    <g id="line2d_39"/>
    <g id="text_25">
     <!-- gap: 21 -->
     <g transform="translate(367.623125 281.826188)scale(0.1 -0.1)">
      <use xlink:href="#DejaVuSans-103"/>
      <use x="63.476562" xlink:href="#DejaVuSans-97"/>
      <use x="124.755859" xlink:href="#DejaVuSans-112"/>
      <use x="188.232422" xlink:href="#DejaVuSans-58"/>
      <use x="221.923828" xlink:href="#DejaVuSans-32"/>
      <use x="253.710938" xlink:href="#DejaVuSans-50"/>
      <use x="317.333984" xlink:href="#DejaVuSans-49"/>
     </g>
    </g>
    <g id="line2d_40">
     <path d="M 339.623125 293.004312 
L 359.623125 293.004312 
" style="fill:none;stroke:#ff0000;stroke-dasharray:1.5,2.475;stroke-dashoffset:0;stroke-width:1.5;"/>
    </g>
    <g id="line2d_41"/>
    <g id="text_26">
     <!-- gap: 34 -->
     <g transform="translate(367.623125 296.504312)scale(0.1 -0.1)">
      <use xlink:href="#DejaVuSans-103"/>
      <use x="63.476562" xlink:href="#DejaVuSans-97"/>
      <use x="124.755859" xlink:href="#DejaVuSans-112"/>
      <use x="188.232422" xlink:href="#DejaVuSans-58"/>
      <use x="221.923828" xlink:href="#DejaVuSans-32"/>
      <use x="253.710938" xlink:href="#DejaVuSans-51"/>
      <use x="317.333984" xlink:href="#DejaVuSans-52"/>
     </g>
    </g>
   </g>
  </g>
 </g>
 <defs>
  <clipPath id="p1a0b703cff">
   <rect height="266.112" width="357.12" x="57.6" y="41.472"/>
  </clipPath>
 </defs>
</svg>
